<?xml version="1.0"?>
<svg width="640" height="640" xmlns="http://www.w3.org/2000/svg">

  <!-- marker definition -->
  <defs>
    <marker id="arrow" markerUnits="strokeWidth" markerWidth="5" markerHeight="5"
      viewBox="0 0 10 10" refX="5" refY="5" orient="auto">
      <polygon points="0,0 10,5 0,10" style="fill:black"/>
    </marker>
  </defs>

  <!-- Prepare -->
  <rect x="20" y="20" width="120" height="30" rx="8" ry="8" style="fill:none; stroke-width:2; stroke:black"/>
  <text x="80" y="35" style="text-anchor:middle; dominant-baseline:central; font-family: IPAPGothic">準備</text>

  <line x1="40" y1="50" x2="40" y2="420" style="stroke:black;stroke-width:2"/>

  <line x1="40" y1="100" x2="60" y2="100" marker-end="url(#arrow)" style="stroke:black; stroke-width:2"/>
  <rect x="70" y="85" width="120" height="30" rx="8" ry="8" style="fill:none; stroke-width: 2; stroke:black"/>
  <text x="130" y="100" style="text-anchor:middle; dominant-baseline:central; font-family: IPAPGothic; font-size:0.8em">事前設定</text>

  <line x1="40" y1="180" x2="60" y2="180" marker-end="url(#arrow)" style="stroke:black; stroke-width:2"/>
  <rect x="70" y="165" width="120" height="30" rx="8" ry="8" style="fill:none; stroke-width: 2; stroke:black"/>
  <text x="130" y="180" style="text-anchor:middle; dominant-baseline:central; font-family: IPAPGothic; font-size:0.8em">プロファイル作成</text>

  <rect x="20" y="70" width="200" height="140" rx="10" ry="10" style="fill:none; stroke-width: 2; stroke:black; stroke-dasharray: 10"/>

  <line x1="40" y1="260" x2="60" y2="260" marker-end="url(#arrow)" style="stroke:black; stroke-width:2"/>
  <rect x="70" y="245" width="120" height="30" rx="8" ry="8" style="fill:none; stroke-width: 2; stroke:black"/>
  <text x="130" y="260" style="text-anchor:middle; dominant-baseline:central; font-family: IPAPGothic; font-size:0.8em">プロファイル取得</text>

  <line x1="40" y1="340" x2="60" y2="340" marker-end="url(#arrow)" style="stroke:black; stroke-width:2"/>
  <rect x="70" y="325" width="120" height="30" rx="8" ry="8" style="fill:none; stroke-width: 2; stroke:black"/>
  <text x="130" y="340" style="text-anchor:middle; dominant-baseline:central; font-family: IPAPGothic; font-size:0.8em">プロファイル解釈</text>

  <line x1="40" y1="420" x2="60" y2="420" marker-end="url(#arrow)" style="stroke:black; stroke-width:2"/>
  <rect x="70" y="405" width="120" height="30" rx="8" ry="8" style="fill:none; stroke-width: 2; stroke:black"/>
  <text x="130" y="420" style="text-anchor:middle; dominant-baseline:central; font-family: IPAPGothic; font-size:0.8em">データ変換</text>

  <polygon points="160,30 200,30 200,20 220,35 200,50 200,40 160,40 160,30" style="stroke:black; stroke-width:2; fill: none"/>

  <!-- Install -->
  <rect x="240" y="20" width="120" height="30" rx="8" ry="8" style="fill:none; stroke-width:2; stroke:black"/>
  <text x="300" y="35" style="text-anchor:middle; dominant-baseline:central; font-family: IPAPGothic">インストール</text>

  <line x1="260" y1="50" x2="260" y2="340" style="stroke:black; stroke-width:2"/>

  <line x1="260" y1="100" x2="280" y2="100" marker-end="url(#arrow)" style="stroke:black; stroke-width:2"/>
  <rect x="290" y="85" width="120" height="30" rx="8" ry="8" style="fill:none; stroke-width: 2; stroke:black"/>
  <text x="350" y="100" style="text-anchor:middle; dominant-baseline:central; font-family: IPAPGothic; font-size:0.8em">パーティション設定</text>

  <line x1="260" y1="180" x2="280" y2="180" marker-end="url(#arrow)" style="stroke:black; stroke-width:2"/>
  <rect x="290" y="165" width="120" height="30" rx="8" ry="8" style="fill:none; stroke-width: 2; stroke:black"/>
  <text x="350" y="180" style="text-anchor:middle; dominant-baseline:central; font-family: IPAPGothic; font-size:0.8em">ファイルシステム作成</text>

  <line x1="260" y1="260" x2="280" y2="260" marker-end="url(#arrow)" style="stroke:black; stroke-width:2"/>
  <rect x="290" y="245" width="120" height="30" rx="8" ry="8" style="fill:none; stroke-width: 2; stroke:black"/>
  <text x="350" y="260" style="text-anchor:middle; dominant-baseline:central; font-family: IPAPGothic; font-size:0.75em">パッケージインストール</text>

  <line x1="260" y1="340" x2="280" y2="340" marker-end="url(#arrow)" style="stroke:black; stroke-width:2"/>
  <rect x="290" y="325" width="120" height="30" rx="8" ry="8" style="fill:none; stroke-width: 2; stroke:black"/>
  <text x="350" y="340" style="text-anchor:middle; dominant-baseline:central; font-family: IPAPGothic; font-size:0.8em">ブートローダ</text>

  <!-- <line x1="380" y1="35" x2="460" y2="35" marker-end="url(#arrow)" style="stroke:black; stroke-width:2"/> -->
  <polygon points="380,30 420,30 420,20 440,35 420,50 420,40 380,40 380,30" style="stroke:black; stroke-width:2; fill: none"/>

  <!-- Configure -->
  <rect x="460" y="20" width="120" height="30" rx="8" ry="8" style="fill:none; stroke-width:2; stroke:black"/>
  <text x="520" y="35" style="text-anchor:middle; dominant-baseline:central; font-family: IPAPGothic">設定</text>

  <line x1="480" y1="50" x2="480" y2="580" style="stroke:black;stroke-width:2"/>

  <line x1="480" y1="100" x2="500" y2="100" marker-end="url(#arrow)" style="stroke:black; stroke-width:2"/>
  <rect x="510" y="85" width="120" height="30" rx="8" ry="8" style="fill:none; stroke-width: 2; stroke:black"/>
  <text x="570" y="100" style="text-anchor:middle; dominant-baseline:central; font-family: IPAPGothic; font-size:0.75em">パッケージインストール</text>

  <line x1="480" y1="180" x2="500" y2="180" marker-end="url(#arrow)" style="stroke:black; stroke-width:2"/>
  <rect x="510" y="165" width="120" height="30" rx="8" ry="8" style="fill:none; stroke-width: 2; stroke:black"/>
  <text x="570" y="180" style="text-anchor:middle; dominant-baseline:central; font-family: IPAPGothic; font-size:0.8em">X11</text>

  <line x1="480" y1="260" x2="500" y2="260" marker-end="url(#arrow)" style="stroke:black; stroke-width:2"/>
  <rect x="510" y="245" width="120" height="30" rx="8" ry="8" style="fill:none; stroke-width: 2; stroke:black"/>
  <text x="570" y="260" style="text-anchor:middle; dominant-baseline:central; font-family: IPAPGothic; font-size:0.8em">システム変数</text>

  <line x1="480" y1="340" x2="500" y2="340" marker-end="url(#arrow)" style="stroke:black; stroke-width:2"/>
  <rect x="510" y="325" width="120" height="30" rx="8" ry="8" style="fill:none; stroke-width: 2; stroke:black"/>
  <text x="570" y="340" style="text-anchor:middle; dominant-baseline:central; font-family: IPAPGothic; font-size:0.8em">SuSEconfig</text>

  <line x1="480" y1="420" x2="500" y2="420" marker-end="url(#arrow)" style="stroke:black; stroke-width:2"/>
  <rect x="510" y="405" width="120" height="30" rx="8" ry="8" style="fill:none; stroke-width: 2; stroke:black"/>
  <text x="570" y="420" style="text-anchor:middle; dominant-baseline:central; font-family: IPAPGothic; font-size:0.8em">ハードウエア</text>

  <line x1="480" y1="500" x2="500" y2="500" marker-end="url(#arrow)" style="stroke:black; stroke-width:2"/>
  <rect x="510" y="485" width="120" height="30" rx="8" ry="8" style="fill:none; stroke-width: 2; stroke:black"/>
  <text x="570" y="500" style="text-anchor:middle; dominant-baseline:central; font-family: IPAPGothic; font-size:0.8em">ネットワーク</text>

  <line x1="480" y1="580" x2="500" y2="580" marker-end="url(#arrow)" style="stroke:black; stroke-width:2"/>
  <rect x="510" y="565" width="120" height="30" rx="8" ry="8" style="fill:none; stroke-width: 2; stroke:black"/>
  <text x="570" y="580" style="text-anchor:middle; dominant-baseline:central; font-family: IPAPGothic; font-size:0.8em">その他設定</text>

</svg>
