<?xml version="1.0"?>
<svg width="620" height="480" xmlns="http://www.w3.org/2000/svg">

  <!-- definition -->
  <defs>
    <linearGradient id="gradient">
      <stop offset="0%" stop-color="white" />
      <stop offset="100%" stop-color="gray" />
    </linearGradient>
  </defs>

  <!-- left side -->
  <rect x="20" y="20" width="240" height="120" style="fill:gray; stroke-width: 2; stroke:black"/>
  <text x="140" y="80" style="text-anchor:middle; dominant-baseline:central; font-family: IPAPGothic">/dev/sda1: Windows</text>

  <rect x="20" y="160" width="240" height="120" style="fill:url(#gradient); stroke-width: 2; stroke:black"/>
  <text x="140" y="220" style="text-anchor:middle; dominant-baseline:centrali; font-family: IPAPGothic">/dev/sda2: Linux ネイティブ</text>

  <rect x="20" y="300" width="240" height="60" style="fill:url(#gradient); stroke-width: 2; stroke:black"/>
  <text x="140" y="330" style="text-anchor:middle; dominant-baseline:central; font-family: IPAPGothic">/dev/sda3: Linux スワップ</text>

  <!-- right side -->
  <rect x="360" y="20" width="240" height="120" style="fill:gray; stroke-width: 2; stroke:black"/>
  <text x="480" y="80" style="text-anchor:middle; dominant-baseline:central; font-family: IPAPGothic">/dev/sda1: Windows</text>

  <rect x="360" y="160" width="240" height="120" style="fill:gray; stroke-width: 2; stroke:black"/>
  <text x="480" y="220" style="text-anchor:middle; dominant-baseline:central; font-family: IPAPGothic">/dev/sda2: &quot;/&quot; (reiserfs)</text>

  <rect x="360" y="300" width="240" height="60" style="fill:gray; stroke-width: 2; stroke:black"/>
  <text x="480" y="330" style="text-anchor:middle; dominant-baseline:central; font-family: IPAPGothic">/dev/sda3: スワップ</text>

  <!-- arrows and dashes -->
  <rect x="260" y="160" width="100" height="120" style="fill:none; stroke-width: 2; stroke:black; stroke-dasharray: 10"/>
  <polygon points="280,200 320,200 320,190 340,220 320,250 320,240 280,240 280,200" style="stroke:black; stroke-width:2; fill: none"/>

  <rect x="260" y="300" width="100" height="60" style="fill:none; stroke-width: 2; stroke:black; stroke-dasharray: 10"/>
  <polygon points="280,310 320,310 320,300 340,330 320,360 320,350 280,350 280,310" style="stroke:black; stroke-width:2; fill: none"/>

  <!-- bottom -->
  <rect x="20" y="400" width="120" height="30" style="fill:gray; stroke-width: 2; stroke:black"/>
  <text x="160" y="415" style="dominant-baseline:central; font-family: IPAPGothic">パーティションを作成し、インストール済みの領域</text>

  <rect x="20" y="440" width="120" height="30" style="fill:url(#gradient); stroke-width: 2; stroke:black"/>
  <text x="160" y="455" style="dominant-baseline:central; font-family: IPAPGothic">パーティションを作成しているが、まだインストールしていない領域</text>
</svg>
